<?xml version="1.0" standalone="no"?><!DOCTYPE svg PUBLIC "-//W3C//DTD SVG 1.1//EN" "http://www.w3.org/Graphics/SVG/1.1/DTD/svg11.dtd"><svg t="1729747709414" class="icon" viewBox="0 0 1024 1024" version="1.1" xmlns="http://www.w3.org/2000/svg" p-id="1629" xmlns:xlink="http://www.w3.org/1999/xlink" width="200" height="200"><path d="M843.8 34.1c38.9 0 70.7 31.8 70.7 70.7v784.5c0 38.9-31.8 70.7-70.7 70.7H127.7C88.8 960 57 928.2 57 889.3V104.8c0-38.9 31.8-70.7 70.7-70.7h716.1z" fill="#D7DEFF" p-id="1630"></path><path d="M891.3 1011.8H141.9c-48.4 0-87.8-39.4-87.8-87.8V103c0-48.4 39.4-87.8 87.8-87.8h749.4c48.4 0 87.8 39.4 87.8 87.8v821c0 48.4-39.4 87.8-87.8 87.8z m-749.4-969c-33.2 0-60.2 27-60.2 60.2v821c0 33.2 27 60.2 60.2 60.2h749.4c33.2 0 60.2-27 60.2-60.2V103c0-33.2-27-60.2-60.2-60.2H141.9z" fill="#2E3468" p-id="1631"></path><path d="M380 713.2c-47.3 0-85.7-38.5-85.7-85.7v-28.8c0-47.3 38.5-85.7 85.7-85.7s85.7 38.5 85.7 85.7v28.8c0 47.2-38.4 85.7-85.7 85.7z m0-172.7c-32.1 0-58.2 26.1-58.2 58.2v28.8c0 32.1 26.1 58.2 58.2 58.2s58.2-26.1 58.2-58.2v-28.8c0-32.1-26.1-58.2-58.2-58.2zM718.1 713.2c-47.3 0-85.7-38.5-85.7-85.7v-28.8c0-47.3 38.5-85.7 85.7-85.7s85.7 38.5 85.7 85.7v28.8c0 47.2-38.5 85.7-85.7 85.7z m0-172.7c-32.1 0-58.2 26.1-58.2 58.2v28.8c0 32.1 26.1 58.2 58.2 58.2s58.2-26.1 58.2-58.2v-28.8c-0.1-32.1-26.2-58.2-58.2-58.2z" fill="#2E3468" p-id="1632"></path><path d="M714.8 524.9c-7.6 0-13.8-6.2-13.8-13.8 0-84.6-68.9-153.5-153.5-153.5S394 426.5 394 511.1c0 7.6-6.2 13.8-13.8 13.8s-13.8-6.2-13.8-13.8c0-99.8 81.2-181 181-181s181 81.2 181 181c0.2 7.6-6 13.8-13.6 13.8z" fill="#2E3468" p-id="1633"></path><path d="M152.7 904.5c-7.6 0-13.7-6.1-13.7-13.7V132.1c0-7.6 6.1-13.7 13.7-13.7s13.7 6.1 13.7 13.7v758.7c0 7.6-6.1 13.7-13.7 13.7z" fill="#2E3468" p-id="1634"></path></svg>